<svg width="61" height="60" viewBox="0 0 61 60" fill="none" xmlns="http://www.w3.org/2000/svg">
<path fill-rule="evenodd" clip-rule="evenodd" d="M30.2119 0C13.6369 0 0.211914 13.7646 0.211914 30.7588C0.211914 44.3696 8.79942 55.8657 20.7244 59.9412C22.2244 60.2104 22.7869 59.2876 22.7869 58.4802C22.7869 57.7497 22.7494 55.3274 22.7494 52.7514C15.2119 54.174 13.2619 50.8674 12.6619 49.1372C12.3244 48.2529 10.8619 45.523 9.58692 44.7925C8.53692 44.2158 7.03692 42.7932 9.54942 42.7548C11.9119 42.7163 13.5994 44.9848 14.1619 45.9075C16.8619 50.5598 21.1744 49.2526 22.8994 48.4451C23.1619 46.4458 23.9494 45.1001 24.8119 44.3311C18.1369 43.5622 11.1619 40.9092 11.1619 29.144C11.1619 25.799 12.3244 23.0307 14.2369 20.8775C13.9369 20.1086 12.8869 16.9558 14.5369 12.7265C14.5369 12.7265 17.0494 11.919 22.7869 15.8792C25.1869 15.1872 27.7369 14.8411 30.2869 14.8411C32.8369 14.8411 35.3869 15.1872 37.7869 15.8792C43.5244 11.8806 46.0369 12.7265 46.0369 12.7265C47.6869 16.9558 46.6369 20.1086 46.3369 20.8775C48.2494 23.0307 49.4119 25.7605 49.4119 29.144C49.4119 40.9477 42.3994 43.5622 35.7244 44.3311C36.8119 45.2924 37.7494 47.1379 37.7494 50.0215C37.7494 54.1355 37.7119 57.4421 37.7119 58.4802C37.7119 59.2876 38.2744 60.2488 39.7744 59.9412C45.7299 57.8797 50.9049 53.9553 54.5711 48.7203C58.2373 43.4854 60.2101 37.2035 60.2119 30.7588C60.2119 13.7646 46.7869 0 30.2119 0Z" fill="#8A8D92"/>
</svg>
