<svg width="61" height="60" viewBox="0 0 61 60" fill="none" xmlns="http://www.w3.org/2000/svg">
<path d="M30.3369 0C13.7682 0 0.336945 13.4313 0.336945 30C0.336945 46.5687 13.7682 60 30.3369 60C46.9057 60 60.3369 46.5687 60.3369 30C60.3369 13.4313 46.9057 0 30.3369 0ZM22.9932 42.4344H16.9182V22.8844H22.9932V42.4344ZM19.9182 20.4844C17.9994 20.4844 16.7588 19.125 16.7588 17.4437C16.7588 15.7281 18.0369 14.4094 19.9963 14.4094C21.9557 14.4094 23.1557 15.7281 23.1932 17.4437C23.1932 19.125 21.9557 20.4844 19.9182 20.4844ZM45.1807 42.4344H39.1057V31.6C39.1057 29.0781 38.2244 27.3656 36.0276 27.3656C34.3494 27.3656 33.3526 28.525 32.9119 29.6406C32.7494 30.0375 32.7088 30.6 32.7088 31.1594V42.4312H26.6307V29.1188C26.6307 26.6781 26.5526 24.6375 26.4713 22.8812H31.7494L32.0276 25.5969H32.1494C32.9494 24.3219 34.9088 22.4406 38.1869 22.4406C42.1838 22.4406 45.1807 25.1187 45.1807 30.875V42.4344Z" fill="#8A8D92"/>
</svg>
