<svg width="57" height="57" viewBox="0 0 57 57" fill="none" xmlns="http://www.w3.org/2000/svg">
<path d="M28.5 24.0112C30.9463 24.0112 32.9413 26.0062 32.9413 28.5C32.9413 30.875 30.9463 32.8937 28.5 32.8937C26.0538 32.8937 24.0588 30.875 24.0588 28.5C24.0588 26.0062 26.0538 24.0112 28.5 24.0112ZM17.5038 47.5C19 48.4025 22.2775 47.025 26.0538 43.4625C24.8188 42.0612 23.6075 40.5412 22.4675 38.95C20.5536 38.7668 18.6509 38.4814 16.7675 38.095C15.5563 43.1775 16.0075 46.6687 17.5038 47.5V47.5ZM19.19 33.8675L18.5013 32.6562C18.24 33.345 17.9788 34.0337 17.8125 34.6987C18.4538 34.8412 19.1663 34.96 19.9025 35.0787L19.19 33.8675ZM34.7225 32.0625L36.6463 28.5L34.7225 24.9375C34.01 23.6787 33.25 22.5625 32.5613 21.4462C31.2788 21.375 29.925 21.375 28.5 21.375C27.075 21.375 25.7213 21.375 24.4388 21.4462C23.75 22.5625 22.99 23.6787 22.2775 24.9375L20.3538 28.5L22.2775 32.0625C22.99 33.3212 23.75 34.4375 24.4388 35.5537C25.7213 35.625 27.075 35.625 28.5 35.625C29.925 35.625 31.2788 35.625 32.5613 35.5537C33.25 34.4375 34.01 33.3212 34.7225 32.0625V32.0625ZM28.5 16.1025C28.0488 16.625 27.5738 17.1712 27.0988 17.8125H29.9013C29.4263 17.1712 28.9513 16.625 28.5 16.1025ZM28.5 40.8975C28.9513 40.375 29.4263 39.8287 29.9013 39.1875H27.0988C27.5738 39.8287 28.0488 40.375 28.5 40.8975ZM39.4725 9.5C38 8.5975 34.7225 9.975 30.9463 13.5375C32.1813 14.9387 33.3925 16.4587 34.5325 18.05C36.48 18.24 38.4038 18.525 40.2325 18.905C41.4438 13.8225 40.9925 10.3312 39.4725 9.5ZM37.81 23.1325L38.4988 24.3437C38.76 23.655 39.0213 22.9662 39.1875 22.3012C38.5463 22.1587 37.8338 22.04 37.0975 21.9212L37.81 23.1325V23.1325ZM41.2538 6.38875C44.745 8.38375 45.125 13.6325 43.6525 19.76C49.685 21.5412 54.0313 24.4862 54.0313 28.5C54.0313 32.5137 49.685 35.4587 43.6525 37.24C45.125 43.3675 44.745 48.6162 41.2538 50.6112C37.7863 52.6062 33.06 50.3262 28.5 45.98C23.94 50.3262 19.2138 52.6062 15.7225 50.6112C12.255 48.6162 11.875 43.3675 13.3475 37.24C7.31503 35.4587 2.96878 32.5137 2.96878 28.5C2.96878 24.4862 7.31503 21.5412 13.3475 19.76C11.875 13.6325 12.255 8.38375 15.7225 6.38875C19.2138 4.39375 23.94 6.67375 28.5 11.02C33.06 6.67375 37.7863 4.39375 41.2538 6.38875ZM40.565 28.5C41.3725 30.2812 42.085 32.0625 42.6788 33.8675C47.6663 32.3712 50.4688 30.2337 50.4688 28.5C50.4688 26.7662 47.6663 24.6287 42.6788 23.1325C42.085 24.9375 41.3725 26.7187 40.565 28.5ZM16.435 28.5C15.6275 26.7187 14.915 24.9375 14.3213 23.1325C9.33378 24.6287 6.53128 26.7662 6.53128 28.5C6.53128 30.2337 9.33378 32.3712 14.3213 33.8675C14.915 32.0625 15.6275 30.2812 16.435 28.5ZM37.81 33.8675L37.0975 35.0787C37.8338 34.96 38.5463 34.8412 39.1875 34.6987C39.0213 34.0337 38.76 33.345 38.4988 32.6562L37.81 33.8675V33.8675ZM30.9463 43.4625C34.7225 47.025 38 48.4025 39.4725 47.5C40.9925 46.6687 41.4438 43.1775 40.2325 38.095C38.4038 38.475 36.48 38.76 34.5325 38.95C33.3925 40.5412 32.1813 42.0612 30.9463 43.4625V43.4625ZM19.19 23.1325L19.9025 21.9212C19.1663 22.04 18.4538 22.1587 17.8125 22.3012C17.9788 22.9662 18.24 23.655 18.5013 24.3437L19.19 23.1325ZM26.0538 13.5375C22.2775 9.975 19 8.5975 17.5038 9.5C16.0075 10.3312 15.5563 13.8225 16.7675 18.905C18.6509 18.5186 20.5536 18.2332 22.4675 18.05C23.6075 16.4587 24.8188 14.9387 26.0538 13.5375V13.5375Z" fill="#8A8D92"/>
</svg>
